<?xml version="1.0" encoding="UTF-8"?>
<svg id="_圖層_2" data-name="圖層 2" xmlns="http://www.w3.org/2000/svg" viewBox="0 0 800 127.24">
  <defs>
    <style>
      .cls-1 {
        fill: #1e202c;
      }
    </style>
  </defs>
  <g id="_圖層_1-2" data-name="圖層 1">
    <g>
      <path class="cls-1" d="M66.73,11.2c-6.21-3.11-13.82-4.66-22.82-4.66H0v119.06h15.78v-46.69h28.13c9,0,16.6-1.4,22.82-4.21,6.21-2.81,10.93-6.91,14.15-12.31,3.22-5.4,4.82-11.91,4.82-19.54,0-7.03-1.61-13.29-4.82-18.77-3.22-5.48-7.93-9.77-14.15-12.88ZM67.26,54.95c-1.77,3.49-4.57,6.21-8.38,8.18-3.82,1.96-8.81,2.94-14.96,2.94H15.78V19.46h28.13c6.16,0,11.15,1.1,14.96,3.31,3.82,2.21,6.61,5.11,8.38,8.71,1.77,3.6,2.66,7.44,2.66,11.53,0,4.47-.89,8.45-2.66,11.94Z"/>
      <path class="cls-1" d="M165.31,42.85c-2.48-2.56-5.47-4.43-8.95-5.6-3.49-1.17-7.41-1.76-11.78-1.76-5.34,0-10.21,1.05-14.6,3.15-4.39,2.1-8.16,5.06-11.33,8.87-.06.07-.11.14-.16.21V0h-15.13v125.61h15.13v-63.05c.97-1.93,2.08-3.74,3.39-5.39,2.21-2.78,4.85-4.96,7.93-6.54,3.08-1.58,6.5-2.37,10.26-2.37s7.03.64,9.65,1.92c2.62,1.28,4.61,3.33,5.97,6.13,1.36,2.81,2.04,6.53,2.04,11.16v58.14h15.21v-57.98c0-5.83-.65-10.78-1.96-14.84-1.31-4.06-3.2-7.37-5.68-9.94Z"/>
      <path class="cls-1" d="M204.6,4.91c-2.94,0-5.17.85-6.66,2.54-1.5,1.69-2.25,3.76-2.25,6.21s.75,4.35,2.25,6.01c1.5,1.66,3.72,2.49,6.66,2.49s5.11-.83,6.66-2.49c1.55-1.66,2.33-3.67,2.33-6.01s-.78-4.52-2.33-6.21c-1.55-1.69-3.78-2.54-6.66-2.54Z"/>
      <rect class="cls-1" x="196.83" y="37.13" width="15.21" height="88.48"/>
      <path class="cls-1" d="M289.07,80.47c-4.69-2.29-10.66-4.25-17.91-5.89-4.14-.93-7.55-1.85-10.22-2.78-2.67-.93-4.74-1.92-6.21-2.98s-2.49-2.23-3.07-3.52c-.57-1.28-.86-2.74-.86-4.37,0-2.18.59-4.25,1.76-6.21,1.17-1.96,3.05-3.58,5.64-4.87,2.59-1.28,5.98-1.92,10.18-1.92,3.98,0,7.35.76,10.1,2.29,2.75,1.53,4.85,3.45,6.3,5.77,1.44,2.32,2.17,4.7,2.17,7.16h15.13c0-5.07-1.34-9.69-4.01-13.86-2.67-4.17-6.52-7.51-11.53-10.02-5.02-2.51-11.07-3.76-18.15-3.76-4.96,0-9.46.68-13.49,2.04-4.04,1.36-7.48,3.24-10.34,5.64-2.86,2.4-5.07,5.15-6.62,8.26s-2.33,6.41-2.33,9.89.74,6.84,2.21,9.57c1.47,2.73,3.58,5.1,6.34,7.11,2.75,2.02,6.1,3.74,10.06,5.15,3.95,1.42,8.38,2.64,13.29,3.68,5.83,1.14,10.21,2.49,13.12,4.05,2.92,1.55,4.85,3.27,5.81,5.15.95,1.88,1.43,3.91,1.43,6.09,0,2.45-.74,4.63-2.21,6.54-1.47,1.91-3.61,3.41-6.42,4.5-2.81,1.09-6.28,1.64-10.43,1.64-3.11,0-6.24-.5-9.4-1.51-3.16-1.01-5.83-2.73-8.01-5.15-2.18-2.42-3.38-5.71-3.6-9.85h-15.21c0,4.91,1.39,9.57,4.17,13.98s6.87,8.01,12.27,10.79c5.4,2.78,11.99,4.17,19.79,4.17,5.18,0,9.85-.64,14.02-1.92s7.77-3.08,10.79-5.4c3.03-2.32,5.34-5.08,6.95-8.3,1.61-3.22,2.41-6.76,2.41-10.63,0-4.74-1.14-8.78-3.43-12.1-2.29-3.32-5.78-6.13-10.47-8.42Z"/>
      <path class="cls-1" d="M388.47,48.37c-3.52-4.06-7.77-7.22-12.76-9.49-4.99-2.26-10.59-3.39-16.8-3.39s-11.72,1.13-16.68,3.39c-4.96,2.26-9.19,5.43-12.68,9.49-3.49,4.06-6.16,8.83-8.01,14.31-1.85,5.48-2.78,11.41-2.78,17.79v1.88c0,6.38.93,12.29,2.78,17.75,1.85,5.45,4.54,10.21,8.05,14.27,3.52,4.06,7.75,7.22,12.72,9.49,4.96,2.26,10.55,3.39,16.76,3.39s11.79-1.13,16.72-3.39c4.93-2.26,9.16-5.42,12.68-9.49,3.52-4.06,6.2-8.82,8.05-14.27,1.85-5.45,2.78-11.37,2.78-17.75v-1.88c0-6.38-.93-12.31-2.78-17.79-1.85-5.48-4.54-10.25-8.05-14.31ZM384.09,82.35c0,4.42-.53,8.57-1.59,12.47-1.06,3.9-2.63,7.35-4.7,10.34-2.07,3-4.68,5.36-7.81,7.07-3.14,1.72-6.77,2.58-10.92,2.58s-7.88-.86-11.04-2.58c-3.16-1.72-5.79-4.07-7.89-7.07-2.1-3-3.67-6.45-4.7-10.34-1.04-3.9-1.55-8.05-1.55-12.47v-1.88c0-4.36.52-8.49,1.55-12.39,1.03-3.9,2.6-7.36,4.7-10.39,2.1-3.03,4.71-5.41,7.85-7.16,3.13-1.74,6.77-2.62,10.92-2.62s7.86.87,11,2.62c3.13,1.75,5.75,4.13,7.85,7.16,2.1,3.03,3.68,6.49,4.74,10.39,1.06,3.9,1.59,8.03,1.59,12.39v1.88Z"/>
      <path class="cls-1" d="M480.22,42.85c-2.48-2.56-5.47-4.43-8.95-5.6-3.49-1.17-7.41-1.76-11.78-1.76-5.34,0-10.21,1.05-14.6,3.15-4.39,2.1-8.17,5.06-11.33,8.87-.17.21-.34.43-.5.64l-.48-11.02h-14.31v88.48h15.13v-63.05c.97-1.93,2.08-3.74,3.39-5.39,2.21-2.78,4.85-4.96,7.93-6.54,3.08-1.58,6.5-2.37,10.26-2.37s7.03.64,9.65,1.92c2.62,1.28,4.61,3.33,5.97,6.13,1.36,2.81,2.04,6.53,2.04,11.16v58.14h15.21v-57.98c0-5.83-.65-10.78-1.96-14.84-1.31-4.06-3.2-7.37-5.68-9.94Z"/>
      <polygon class="cls-1" points="630.4 57.73 570.38 57.73 570.38 6.54 554.59 6.54 554.59 125.61 570.38 125.61 570.38 70.57 630.4 70.57 630.4 125.61 646.1 125.61 646.1 6.54 630.4 6.54 630.4 57.73"/>
      <path class="cls-1" d="M687.81,42.77c1.36-5.18,3.39-9.62,6.09-13.33,2.7-3.71,6.05-6.57,10.06-8.59,4.01-2.02,8.65-3.03,13.94-3.03,6.16,0,11.15,1.09,14.96,3.27,3.81,2.18,6.76,5.27,8.83,9.28,2.07,4.01,3.49,8.79,4.25,14.35h15.7c-.82-7.85-2.96-14.76-6.42-20.73-3.46-5.97-8.3-10.64-14.51-14.02-6.21-3.38-13.82-5.07-22.82-5.07-7.36,0-13.98,1.31-19.87,3.93s-10.92,6.35-15.09,11.2c-4.17,4.85-7.36,10.67-9.57,17.46s-3.31,14.35-3.31,22.69v11.86c0,8.34,1.1,15.91,3.31,22.69s5.36,12.59,9.44,17.42,8.98,8.55,14.68,11.16c5.7,2.62,12.03,3.93,19.01,3.93,9.54,0,17.5-1.73,23.88-5.19,6.38-3.46,11.31-8.16,14.8-14.11,3.49-5.94,5.64-12.68,6.46-20.2h-15.7c-.87,5.56-2.33,10.33-4.37,14.31-2.04,3.98-5.06,7.03-9.04,9.16-3.98,2.13-9.32,3.19-16.03,3.19-5.29,0-9.87-1.1-13.74-3.31-3.87-2.21-7.06-5.25-9.57-9.12-2.51-3.87-4.37-8.37-5.6-13.49-1.23-5.12-1.84-10.6-1.84-16.44v-12.02c0-6.32.68-12.07,2.04-17.25Z"/>
      <rect class="cls-1" x="784.22" y="6.54" width="15.78" height="119.06"/>
    </g>
  </g>
</svg>