<svg width="512" height="512" viewBox="0 0 512 512" fill="none" xmlns="http://www.w3.org/2000/svg">
<path d="M71.176 255.056C53.512 255.056 39.496 244.688 42.76 220.784C45.64 197.072 61.576 183.728 80.776 183.728C98.152 183.728 112.36 194.384 109.192 217.904C106.216 241.712 90.28 255.056 71.176 255.056ZM72.424 237.872C82.888 237.872 89.128 227.792 90.184 215.504C91.048 205.808 86.248 200.912 79.24 200.912C68.584 200.912 62.536 211.088 61.48 222.992C60.52 233.072 65.224 237.872 72.424 237.872ZM114.959 254L126.095 201.68H111.119L114.767 184.496H164.111L160.463 201.68H145.583L134.447 254H114.959ZM164.324 254L175.46 201.68H160.484L164.132 184.496H213.476L209.828 201.68H194.948L183.812 254H164.324ZM202.745 254L217.529 184.496H264.185L260.633 201.68H233.369L231.065 211.952H256.601L253.625 226.16H228.089L225.785 236.912H253.049L249.401 254H202.745ZM292.831 184.496C316.351 184.496 324.127 194.384 320.767 209.936C319.039 218.192 314.143 225.488 304.831 229.52L312.415 254H291.871L287.263 232.976H285.919H279.487L274.975 254H255.391L270.175 184.496H292.831ZM286.303 200.72L282.271 219.152H287.359C295.231 219.152 300.031 216.944 301.471 209.936C302.911 203.504 299.263 200.72 292.639 200.72H286.303Z" fill="#F6921E"/>
<path d="M209.998 338.96C194.83 338.96 183.694 330.704 182.062 318.416L199.63 315.92C200.59 321.104 205.198 324.56 210.862 324.56C216.814 324.56 220.654 322.16 220.654 317.936C220.654 307.76 189.166 310.928 189.166 289.904C189.166 276.176 200.302 267.344 217.486 267.344C231.79 267.344 243.79 275.696 244.942 286.64L227.182 289.424C225.838 284.912 221.902 282.032 216.622 282.032C211.342 282.032 207.982 284.336 207.982 288.272C207.982 299.792 240.046 295.088 240.046 316.496C240.046 330.128 228.238 338.96 209.998 338.96ZM273.359 339.152C252.527 339.152 240.143 324.848 244.559 301.808C248.687 280.304 263.855 267.632 282.576 267.632C299.471 267.632 311.472 277.808 311.568 294.416L292.271 296.816C291.984 289.808 287.76 285.296 281.423 285.296C272.495 285.296 266.255 292.112 264.143 304.016C262.223 314.576 266.543 321.584 274.896 321.584C281.615 321.584 286.8 317.552 289.776 310.064L308.208 313.808C302.063 330.416 289.104 339.152 273.359 339.152ZM351.088 338L350.032 327.632H325.552L319.984 338H299.152L339.856 268.496H359.728L371.056 338H351.088ZM332.848 314H348.592L346 289.52L332.848 314ZM371.393 338L386.177 268.496H405.665L394.529 320.912H416.417L412.769 338H371.393ZM416.071 338L430.855 268.496H477.511L473.959 285.68H446.695L444.391 295.952H469.927L466.951 310.16H441.415L439.111 320.912H466.375L462.727 338H416.071Z" fill="#132951"/>
</svg>
